<svg xmlns="http://www.w3.org/2000/svg" viewBox="0 0 408.45 88.14"><defs><style>.cls-1{fill:none;stroke:#000;stroke-miterlimit:10;stroke-width:2px;}</style></defs><g id="B"><line class="cls-1" x1="1" y1="0.33" x2="1" y2="85.87"/><path class="cls-1" d="M33.57,12.47a15,15,0,1,1,0,30" transform="translate(-10.07 -6.9)"/><path class="cls-1" d="M33.36,57.56a15,15,0,0,1,0,30" transform="translate(-10.07 -6.9)"/><path class="cls-1" d="M67.27,52.47a30.12,30.12,0,0,1,0,40" transform="translate(-10.07 -6.9)"/><path class="cls-1" d="M67.27,7.56a30.12,30.12,0,0,1,0,40" transform="translate(-10.07 -6.9)"/></g><g id="a"><path class="cls-1" d="M108.41,66.64a5.94,5.94,0,0,0,0,11.88" transform="translate(-10.07 -6.9)"/><path class="cls-1" d="M108.41,52.49a20,20,0,0,0,0,40" transform="translate(-10.07 -6.9)"/><line class="cls-1" x1="109.12" y1="44.14" x2="109.12" y2="87.14"/></g><g id="u"><path class="cls-1" d="M138.23,51V74c0,11,8.25,20,18.41,20s18.39-9,18.4-20V51" transform="translate(-10.07 -6.9)"/><path class="cls-1" d="M145.75,59.77V73.38c0,6.53,4.88,11.82,10.89,11.82s10.87-5.29,10.88-11.82V59.77" transform="translate(-10.07 -6.9)"/></g><g id="e1"><path class="cls-1" d="M197.48,61.28h6.36a3.74,3.74,0,0,1,0,7.47h-6.36" transform="translate(-10.07 -6.9)"/><path class="cls-1" d="M197.48,52.49h6.36a12.58,12.58,0,0,1,0,25.16h-6.36" transform="translate(-10.07 -6.9)"/><path class="cls-1" d="M191.19,51V76.87a12.76,12.76,0,0,0,12.59,12.92h12.63" transform="translate(-10.07 -6.9)"/></g><g id="r"><line class="cls-1" x1="219.81" y1="44.14" x2="219.81" y2="82.89"/><path class="cls-1" d="M257.47,61.4c-6.7,0-11.32-.14-14.26.46a7.14,7.14,0,0,0-5.37,6.9v21" transform="translate(-10.07 -6.9)"/><path class="cls-1" d="M237.84,81.14" transform="translate(-10.07 -6.9)"/><path class="cls-1" d="M257.47,52.75c-6.7,0-11.32-.14-14.26.46a7.14,7.14,0,0,0-5.37,6.9" transform="translate(-10.07 -6.9)"/></g><g id="s"><path class="cls-1" d="M285.48,52.74h-9a9,9,0,1,0,0,17.93h0" transform="translate(-10.07 -6.9)"/><path class="cls-1" d="M276.87,57a4.71,4.71,0,1,0,0,9.42" transform="translate(-10.07 -6.9)"/><path class="cls-1" d="M267.52,88.6h9a9,9,0,0,0,0-17.93h0" transform="translate(-10.07 -6.9)"/><path class="cls-1" d="M276.14,84.35a4.72,4.72,0,0,0,0-9.43" transform="translate(-10.07 -6.9)"/></g><g id="f"><path class="cls-1" d="M322.29,14.54" transform="translate(-10.07 -6.9)"/><line class="cls-1" x1="295.4" y1="82.89" x2="295.4" y2="17.96"/><path class="cls-1" d="M305.47,25.21a10.32,10.32,0,0,1,10.3-10.32h6.52" transform="translate(-10.07 -6.9)"/><path class="cls-1" d="M328.79,18.82" transform="translate(-10.07 -6.9)"/><line class="cls-1" x1="300.97" y1="82.89" x2="300.97" y2="24.69"/><path class="cls-1" d="M311.05,31.92c0-5.37,4.61-9.73,10.3-9.73h.94" transform="translate(-10.07 -6.9)"/><line class="cls-1" x1="305.03" y1="35.2" x2="315.03" y2="35.2"/><line class="cls-1" x1="305.03" y1="40.02" x2="315.03" y2="40.02"/><line class="cls-1" x1="281.34" y1="35.2" x2="291.34" y2="35.2"/><line class="cls-1" x1="281.34" y1="40.02" x2="291.34" y2="40.02"/></g><g id="e2"><path class="cls-1" d="M338.18,61.53h6.35a3.74,3.74,0,1,1,0,7.48h-6.35" transform="translate(-10.07 -6.9)"/><path class="cls-1" d="M338.18,52.74h6.35a12.59,12.59,0,0,1,0,25.17h-6.35" transform="translate(-10.07 -6.9)"/><path class="cls-1" d="M331.88,51.29V77.13a12.76,12.76,0,0,0,12.59,12.92h12.64" transform="translate(-10.07 -6.9)"/><line class="cls-1" x1="360.17" y1="8.27" x2="360.17" y2="83.42"/><line class="cls-1" x1="365.39" y1="8.27" x2="365.39" y2="83.42"/></g><g id="d"><path class="cls-1" d="M406.75,64.77a5.94,5.94,0,1,0,0,11.88" transform="translate(-10.07 -6.9)"/><path class="cls-1" d="M406.75,50.62a20,20,0,0,0,0,40" transform="translate(-10.07 -6.9)"/><line class="cls-1" x1="407.45" y1="8.27" x2="407.45" y2="85.27"/><line class="cls-1" x1="396.67" y1="36.38" x2="396.67" y2="8.27"/></g></svg>